<svg width="105" height="45" viewBox="0 0 105 45" fill="none" xmlns="http://www.w3.org/2000/svg">
<path d="M25.2908 39.8032H29.1589V43.5906C28.0558 44.5292 26.7918 45 25.3659 45C24.4365 45 23.6108 44.7942 22.89 44.3867C22.1875 43.9968 21.6118 43.4163 21.2307 42.713C20.8457 42.0058 20.6539 41.2125 20.6539 40.3318C20.6539 39.7082 20.7706 39.1102 21.0065 38.5419C21.2398 37.9736 21.5613 37.4783 21.967 37.0541C22.3728 36.6298 22.8693 36.2946 23.4578 36.0452C24.0533 35.7942 24.6943 35.6668 25.3413 35.671C26.1022 35.671 26.7529 35.77 27.2909 35.968C27.8562 36.1818 28.3793 36.4923 28.8361 36.8858L27.8211 38.088C27.475 37.7875 27.0846 37.5414 26.6635 37.3579C26.2811 37.1972 25.8197 37.1175 25.2765 37.1175C24.7321 37.1175 24.2317 37.2626 23.778 37.5532C23.3235 37.842 22.9555 38.2467 22.7124 38.7246C22.4557 39.217 22.3287 39.7532 22.3287 40.3318C22.3287 40.9489 22.4557 41.5 22.7085 41.986C22.9626 42.4733 23.3255 42.8552 23.7974 43.1342C24.2679 43.4132 24.8085 43.5536 25.4177 43.5536C26.2759 43.5536 27.0096 43.3262 27.6176 42.8737V41.1812H25.2908V39.8032ZM102.077 35.8211H103.91L100.294 41.2508V44.8431H98.6961V41.2879L95.0873 35.8211H96.9708L99.5089 39.8157L102.077 35.8211ZM29.9172 13.7467C29.9172 16.376 29.2742 18.737 27.9857 20.8276C26.6985 22.9181 24.9187 24.5523 22.6476 25.7287C20.3739 26.9052 17.8124 27.4934 14.958 27.4934C12.1061 27.4934 9.54335 26.9052 7.27094 25.7287C4.99853 24.5523 3.21869 22.9181 1.93147 20.8276C0.644247 18.737 0 16.376 0 13.7467C0 11.1174 0.644247 8.75836 1.93147 6.6665C3.21869 4.57593 4.9985 2.94306 7.2722 1.76535C9.54331 0.588917 12.1061 0 14.9592 0C17.8111 0 20.3739 0.588917 22.6463 1.76535C24.9187 2.94306 26.6985 4.57593 27.9857 6.6665C29.2742 8.75836 29.9172 11.1174 29.9172 13.7467ZM20.1211 10.2732C19.5896 9.28316 18.8767 8.52044 17.9796 7.98172C17.0697 7.44009 16.0256 7.16059 14.9645 7.17439C13.8535 7.17439 12.8489 7.4443 11.9505 7.98172C11.0535 8.52044 10.3392 9.28444 9.81163 10.2732C9.28015 11.2632 9.01315 12.4199 9.01315 13.7467C9.01315 15.0736 9.27888 16.2322 9.81036 17.2222C10.3393 18.2109 11.0535 18.9743 11.9505 19.513C12.8489 20.0504 13.8535 20.3197 14.9645 20.3197C16.0767 20.3197 17.0813 20.0504 17.9796 19.513C18.8767 18.973 19.5896 18.2109 20.1211 17.2222C20.6526 16.2322 20.917 15.0749 20.917 13.7467C20.917 12.4199 20.6526 11.2619 20.1211 10.2732ZM6.97669 35.7583L10.9783 44.8418H9.28794L8.36761 42.6665H4.06129L3.12151 44.8418H1.48294L5.4898 35.7583H6.97669ZM7.77517 41.264L6.20148 37.6511L4.64076 41.264H7.77517ZM100.221 0.580078H104.012V26.9058H100.221V0.580078ZM41.9248 43.4393H47.132V44.8431H40.3265V35.8211H47.0685V37.2242H41.9248V39.6023H46.4852V41.0041H41.9248V43.4393ZM83.1341 43.2629C83.5308 43.07 83.9417 42.7743 84.3695 42.3796L85.3987 43.4148C85.0936 43.7316 84.756 44.0155 84.3915 44.263C84.0596 44.4841 83.6655 44.6616 83.2105 44.7966C82.7555 44.9316 82.2513 45 81.7016 45C80.8331 45 80.045 44.7943 79.3346 44.3829C78.6359 43.9822 78.0609 43.3997 77.6715 42.6985C77.2687 41.9756 77.0618 41.1615 77.0713 40.3355C77.0658 39.1101 77.5344 37.9294 78.3806 37.0365C78.8031 36.6059 79.3105 36.2657 79.8713 36.0383C80.4713 35.7907 81.1154 35.6661 81.7652 35.671C82.5481 35.671 83.2184 35.7903 83.7758 36.0308C84.3332 36.2712 84.8517 36.616 85.3287 37.0672L84.3059 38.2412C83.9474 37.9064 83.5412 37.6258 83.1004 37.4081C82.679 37.2112 82.218 37.1117 81.7522 37.1175C81.1844 37.1175 80.6698 37.2602 80.2096 37.5469C79.7503 37.8301 79.3778 38.2322 79.1324 38.7102C78.8728 39.2128 78.7406 39.7708 78.7474 40.3355C78.7474 41.2317 79.0326 41.9914 79.6055 42.6163C80.1759 43.2411 80.8928 43.5536 81.7522 43.5536C82.2772 43.5536 82.7374 43.4558 83.1341 43.2629ZM89.1035 0.580078H94.0165V26.9058H90.0952L75.4017 9.07973V26.9058H70.4887V0.580078H74.41L89.1035 18.4062V0.580078ZM64.4661 35.8211H66.0372V44.8418H64.7007L59.6918 38.4264V44.8418H58.1207V35.8211H59.6024L64.4661 42.0619V35.8211ZM64.9781 26.9058H58.004L57.9276 13.1196L51.1194 24.3426H47.7893L41.0187 13.4912V26.9058H34.1224V0.580078H40.3005L49.6248 15.7745L58.7236 0.580078H64.9003L64.9781 26.9058Z" fill="#161616"/>
</svg>
